<svg xmlns="http://www.w3.org/2000/svg" xmlns:xlink="http://www.w3.org/1999/xlink" contentStyleType="text/css" height="315px" preserveAspectRatio="none" style="width:2002px;height:315px;background:#777777;" version="1.1" viewBox="0 0 2002 315" width="2002px" zoomAndPan="magnify"><defs/><g><rect fill="#777777" height="315" style="stroke:none;stroke-width:1.0;" width="2002" x="0" y="0"/><!--cluster src--><g id="cluster_src"><path d="M8.5,6 L34.5,6 A3.75,3.75 0 0 1 37,8.5 L44,28.2969 L1767.5,28.2969 A2.5,2.5 0 0 1 1770,30.7969 L1770,189.11 A2.5,2.5 0 0 1 1767.5,191.61 L8.5,191.61 A2.5,2.5 0 0 1 6,189.11 L6,8.5 A2.5,2.5 0 0 1 8.5,6 " fill="none" style="stroke:#FFFFFF;stroke-width:1.5;"/><line style="stroke:#FFFFFF;stroke-width:1.5;" x1="6" x2="44" y1="28.2969" y2="28.2969"/><text fill="#FFFFFF" font-family="sans-serif" font-size="14" font-weight="bold" lengthAdjust="spacing" textLength="25" x="10" y="20.9951">src</text></g><!--cluster components--><g id="cluster_components"><path d="M32.5,55.4 L131.5,55.4 A3.75,3.75 0 0 1 134,57.9 L141,77.6969 L433.5,77.6969 A2.5,2.5 0 0 1 436,80.1969 L436,158.71 A2.5,2.5 0 0 1 433.5,161.21 L32.5,161.21 A2.5,2.5 0 0 1 30,158.71 L30,57.9 A2.5,2.5 0 0 1 32.5,55.4 " fill="none" style="stroke:#FFFFFF;stroke-width:1.5;"/><line style="stroke:#FFFFFF;stroke-width:1.5;" x1="30" x2="141" y1="77.6969" y2="77.6969"/><text fill="#FFFFFF" font-family="sans-serif" font-size="14" font-weight="bold" lengthAdjust="spacing" textLength="98" x="34" y="70.3951">components</text></g><!--cluster services--><g id="cluster_services"><path d="M462.5,55.4 L530.5,55.4 A3.75,3.75 0 0 1 533,57.9 L540,77.6969 L1490.5,77.6969 A2.5,2.5 0 0 1 1493,80.1969 L1493,158.71 A2.5,2.5 0 0 1 1490.5,161.21 L462.5,161.21 A2.5,2.5 0 0 1 460,158.71 L460,57.9 A2.5,2.5 0 0 1 462.5,55.4 " fill="none" style="stroke:#FFFFFF;stroke-width:1.5;"/><line style="stroke:#FFFFFF;stroke-width:1.5;" x1="460" x2="540" y1="77.6969" y2="77.6969"/><text fill="#FFFFFF" font-family="sans-serif" font-size="14" font-weight="bold" lengthAdjust="spacing" textLength="67" x="464" y="70.3951">services</text></g><!--cluster utils--><g id="cluster_utils"><path d="M1519.5,49 L1553.5,49 A3.75,3.75 0 0 1 1556,51.5 L1563,71.2969 L1674.5,71.2969 A2.5,2.5 0 0 1 1677,73.7969 L1677,165.11 A2.5,2.5 0 0 1 1674.5,167.61 L1519.5,167.61 A2.5,2.5 0 0 1 1517,165.11 L1517,51.5 A2.5,2.5 0 0 1 1519.5,49 " fill="none" style="stroke:#FFFFFF;stroke-width:1.5;"/><line style="stroke:#FFFFFF;stroke-width:1.5;" x1="1517" x2="1563" y1="71.2969" y2="71.2969"/><text fill="#FFFFFF" font-family="sans-serif" font-size="14" font-weight="bold" lengthAdjust="spacing" textLength="33" x="1521" y="63.9951">utils</text></g><!--cluster services--><g id="cluster_services"><path d="M1475.5,215.61 L1543.5,215.61 A3.75,3.75 0 0 1 1546,218.11 L1553,237.9069 L1812.5,237.9069 A2.5,2.5 0 0 1 1815,240.4069 L1815,306.11 A2.5,2.5 0 0 1 1812.5,308.61 L1475.5,308.61 A2.5,2.5 0 0 1 1473,306.11 L1473,218.11 A2.5,2.5 0 0 1 1475.5,215.61 " fill="none" style="stroke:#FFFFFF;stroke-width:1.5;"/><line style="stroke:#FFFFFF;stroke-width:1.5;" x1="1473" x2="1553" y1="237.9069" y2="237.9069"/><text fill="#FFFFFF" font-family="sans-serif" font-size="14" font-weight="bold" lengthAdjust="spacing" textLength="67" x="1477" y="230.6051">services</text></g><!--cluster components--><g id="cluster_components"><path d="M1841.5,215.61 L1940.5,215.61 A3.75,3.75 0 0 1 1943,218.11 L1950,237.9069 L1992.5,237.9069 A2.5,2.5 0 0 1 1995,240.4069 L1995,306.11 A2.5,2.5 0 0 1 1992.5,308.61 L1841.5,308.61 A2.5,2.5 0 0 1 1839,306.11 L1839,218.11 A2.5,2.5 0 0 1 1841.5,215.61 " fill="none" style="stroke:#FFFFFF;stroke-width:1.5;"/><line style="stroke:#FFFFFF;stroke-width:1.5;" x1="1839" x2="1950" y1="237.9069" y2="237.9069"/><text fill="#FFFFFF" font-family="sans-serif" font-size="14" font-weight="bold" lengthAdjust="spacing" textLength="98" x="1843" y="230.6051">components</text></g><!--class main--><g id="elem_main"><rect codeLine="4" fill="#2E2E2E" height="54.8047" id="main" rx="2.5" ry="2.5" style="stroke:#1B1B1B;stroke-width:0.5;" width="59" x="1695.5" y="90.4"/><ellipse cx="1709.75" cy="103.4" fill="#2E5233" rx="8" ry="8" style="stroke:#E7E7E7;stroke-width:1.0;"/><path d="M1711.875,106.9625 Q1711.2969,107.2594 1710.6719,107.4 Q1710.0625,107.5563 1709.3906,107.5563 Q1707.3906,107.5563 1706.2188,106.4469 Q1705.0469,105.3219 1705.0469,103.4 Q1705.0469,101.4781 1706.2188,100.3531 Q1707.3906,99.2281 1709.3906,99.2281 Q1710.0625,99.2281 1710.6719,99.3844 Q1711.2969,99.5406 1711.875,99.8375 L1711.875,101.4938 Q1711.2969,101.1031 1710.7344,100.9156 Q1710.1719,100.7281 1709.5625,100.7281 Q1708.4531,100.7281 1707.8125,101.4469 Q1707.1875,102.15 1707.1875,103.4 Q1707.1875,104.6344 1707.8125,105.3531 Q1708.4531,106.0563 1709.5625,106.0563 Q1710.1719,106.0563 1710.7344,105.8844 Q1711.2969,105.6969 1711.875,105.3063 L1711.875,106.9625 Z " fill="#FFFFFF"/><text fill="#AAAAAA" font-family="Verdana" font-size="11" lengthAdjust="spacing" textLength="28" x="1721.25" y="107.2081">main</text><line style="stroke:#1B1B1B;stroke-width:0.5;" x1="1696.5" x2="1753.5" y1="116.4" y2="116.4"/><line style="stroke:#1B1B1B;stroke-width:0.5;" x1="1696.5" x2="1753.5" y1="124.4" y2="124.4"/><ellipse cx="1706.5" cy="135.8023" fill="#84BE84" rx="3" ry="3" style="stroke:#038048;stroke-width:1.0;"/><text fill="#AAAAAA" font-family="sans-serif" font-size="11" lengthAdjust="spacing" textLength="36" x="1712.5" y="138.6104">main()</text></g><!--class image_processor--><g id="elem_image_processor"><rect codeLine="9" fill="#2E2E2E" height="54.8047" id="image_processor" rx="2.5" ry="2.5" style="stroke:#1B1B1B;stroke-width:0.5;" width="373" x="46.5" y="90.4"/><ellipse cx="180" cy="103.4" fill="#2E5233" rx="8" ry="8" style="stroke:#E7E7E7;stroke-width:1.0;"/><path d="M182.125,106.9625 Q181.5469,107.2594 180.9219,107.4 Q180.3125,107.5563 179.6406,107.5563 Q177.6406,107.5563 176.4688,106.4469 Q175.2969,105.3219 175.2969,103.4 Q175.2969,101.4781 176.4688,100.3531 Q177.6406,99.2281 179.6406,99.2281 Q180.3125,99.2281 180.9219,99.3844 Q181.5469,99.5406 182.125,99.8375 L182.125,101.4938 Q181.5469,101.1031 180.9844,100.9156 Q180.4219,100.7281 179.8125,100.7281 Q178.7031,100.7281 178.0625,101.4469 Q177.4375,102.15 177.4375,103.4 Q177.4375,104.6344 178.0625,105.3531 Q178.7031,106.0563 179.8125,106.0563 Q180.4219,106.0563 180.9844,105.8844 Q181.5469,105.6969 182.125,105.3063 L182.125,106.9625 Z " fill="#FFFFFF"/><text fill="#AAAAAA" font-family="Verdana" font-size="11" lengthAdjust="spacing" textLength="99" x="196" y="107.2081">image_processor</text><line style="stroke:#1B1B1B;stroke-width:0.5;" x1="47.5" x2="418.5" y1="116.4" y2="116.4"/><line style="stroke:#1B1B1B;stroke-width:0.5;" x1="47.5" x2="418.5" y1="124.4" y2="124.4"/><ellipse cx="57.5" cy="135.8023" fill="#84BE84" rx="3" ry="3" style="stroke:#038048;stroke-width:1.0;"/><text fill="#AAAAAA" font-family="sans-serif" font-size="11" lengthAdjust="spacing" textLength="350" x="63.5" y="138.6104">process_images(images: List[Image]) : List[ProcessedImage]</text></g><!--class download_service--><g id="elem_download_service"><rect codeLine="15" fill="#2E2E2E" height="54.8047" id="download_service" rx="2.5" ry="2.5" style="stroke:#1B1B1B;stroke-width:0.5;" width="452" x="476" y="90.4"/><ellipse cx="648" cy="103.4" fill="#2E5233" rx="8" ry="8" style="stroke:#E7E7E7;stroke-width:1.0;"/><path d="M650.125,106.9625 Q649.5469,107.2594 648.9219,107.4 Q648.3125,107.5563 647.6406,107.5563 Q645.6406,107.5563 644.4688,106.4469 Q643.2969,105.3219 643.2969,103.4 Q643.2969,101.4781 644.4688,100.3531 Q645.6406,99.2281 647.6406,99.2281 Q648.3125,99.2281 648.9219,99.3844 Q649.5469,99.5406 650.125,99.8375 L650.125,101.4938 Q649.5469,101.1031 648.9844,100.9156 Q648.4219,100.7281 647.8125,100.7281 Q646.7031,100.7281 646.0625,101.4469 Q645.4375,102.15 645.4375,103.4 Q645.4375,104.6344 646.0625,105.3531 Q646.7031,106.0563 647.8125,106.0563 Q648.4219,106.0563 648.9844,105.8844 Q649.5469,105.6969 650.125,105.3063 L650.125,106.9625 Z " fill="#FFFFFF"/><text fill="#AAAAAA" font-family="Verdana" font-size="11" lengthAdjust="spacing" textLength="101" x="664" y="107.2081">download_service</text><line style="stroke:#1B1B1B;stroke-width:0.5;" x1="477" x2="927" y1="116.4" y2="116.4"/><line style="stroke:#1B1B1B;stroke-width:0.5;" x1="477" x2="927" y1="124.4" y2="124.4"/><ellipse cx="487" cy="135.8023" fill="#84BE84" rx="3" ry="3" style="stroke:#038048;stroke-width:1.0;"/><text fill="#AAAAAA" font-family="sans-serif" font-size="11" lengthAdjust="spacing" textLength="429" x="493" y="138.6104">download_images_from_jsonl(jsonl_path: str) : Tuple[List[Image], List[Dict]]</text></g><!--class classification_service--><g id="elem_classification_service"><rect codeLine="19" fill="#2E2E2E" height="54.8047" id="classification_service" rx="2.5" ry="2.5" style="stroke:#1B1B1B;stroke-width:0.5;" width="513" x="963.5" y="90.4"/><ellipse cx="1156" cy="103.4" fill="#2E5233" rx="8" ry="8" style="stroke:#E7E7E7;stroke-width:1.0;"/><path d="M1158.125,106.9625 Q1157.5469,107.2594 1156.9219,107.4 Q1156.3125,107.5563 1155.6406,107.5563 Q1153.6406,107.5563 1152.4688,106.4469 Q1151.2969,105.3219 1151.2969,103.4 Q1151.2969,101.4781 1152.4688,100.3531 Q1153.6406,99.2281 1155.6406,99.2281 Q1156.3125,99.2281 1156.9219,99.3844 Q1157.5469,99.5406 1158.125,99.8375 L1158.125,101.4938 Q1157.5469,101.1031 1156.9844,100.9156 Q1156.4219,100.7281 1155.8125,100.7281 Q1154.7031,100.7281 1154.0625,101.4469 Q1153.4375,102.15 1153.4375,103.4 Q1153.4375,104.6344 1154.0625,105.3531 Q1154.7031,106.0563 1155.8125,106.0563 Q1156.4219,106.0563 1156.9844,105.8844 Q1157.5469,105.6969 1158.125,105.3063 L1158.125,106.9625 Z " fill="#FFFFFF"/><text fill="#AAAAAA" font-family="Verdana" font-size="11" lengthAdjust="spacing" textLength="121" x="1172" y="107.2081">classification_service</text><line style="stroke:#1B1B1B;stroke-width:0.5;" x1="964.5" x2="1475.5" y1="116.4" y2="116.4"/><line style="stroke:#1B1B1B;stroke-width:0.5;" x1="964.5" x2="1475.5" y1="124.4" y2="124.4"/><ellipse cx="974.5" cy="135.8023" fill="#84BE84" rx="3" ry="3" style="stroke:#038048;stroke-width:1.0;"/><text fill="#AAAAAA" font-family="sans-serif" font-size="11" lengthAdjust="spacing" textLength="490" x="980.5" y="138.6104">classify_images(processed_images: List[ProcessedImage]) : List[Tuple[str, str, float]]</text></g><!--class config--><g id="elem_config"><rect codeLine="25" fill="#2E2E2E" height="67.6094" id="config" rx="2.5" ry="2.5" style="stroke:#1B1B1B;stroke-width:0.5;" width="128" x="1533" y="84"/><ellipse cx="1576.5" cy="97" fill="#2E5233" rx="8" ry="8" style="stroke:#E7E7E7;stroke-width:1.0;"/><path d="M1578.625,100.5625 Q1578.0469,100.8594 1577.4219,101 Q1576.8125,101.1563 1576.1406,101.1563 Q1574.1406,101.1563 1572.9688,100.0469 Q1571.7969,98.9219 1571.7969,97 Q1571.7969,95.0781 1572.9688,93.9531 Q1574.1406,92.8281 1576.1406,92.8281 Q1576.8125,92.8281 1577.4219,92.9844 Q1578.0469,93.1406 1578.625,93.4375 L1578.625,95.0938 Q1578.0469,94.7031 1577.4844,94.5156 Q1576.9219,94.3281 1576.3125,94.3281 Q1575.2031,94.3281 1574.5625,95.0469 Q1573.9375,95.75 1573.9375,97 Q1573.9375,98.2344 1574.5625,98.9531 Q1575.2031,99.6563 1576.3125,99.6563 Q1576.9219,99.6563 1577.4844,99.4844 Q1578.0469,99.2969 1578.625,98.9063 L1578.625,100.5625 Z " fill="#FFFFFF"/><text fill="#AAAAAA" font-family="Verdana" font-size="11" lengthAdjust="spacing" textLength="34" x="1592.5" y="100.8081">config</text><line style="stroke:#1B1B1B;stroke-width:0.5;" x1="1534" x2="1660" y1="110" y2="110"/><ellipse cx="1544" cy="121.4023" fill="none" rx="3" ry="3" style="stroke:#038048;stroke-width:1.0;"/><text fill="#AAAAAA" font-family="sans-serif" font-size="11" lengthAdjust="spacing" textLength="102" x="1550" y="124.2104">CONFIG_PATH: str</text><line style="stroke:#1B1B1B;stroke-width:0.5;" x1="1534" x2="1660" y1="130.8047" y2="130.8047"/><ellipse cx="1544" cy="142.207" fill="#84BE84" rx="3" ry="3" style="stroke:#038048;stroke-width:1.0;"/><text fill="#AAAAAA" font-family="sans-serif" font-size="11" lengthAdjust="spacing" textLength="105" x="1550" y="145.0151">load_config() : Dict</text></g><!--class download_service--><g id="elem_download_service"><rect fill="#2E2E2E" height="42" id="download_service" rx="2.5" ry="2.5" style="stroke:#1B1B1B;stroke-width:0.5;" width="127" x="1489.5" y="250.61"/><ellipse cx="1501.5" cy="263.61" fill="#2E5233" rx="8" ry="8" style="stroke:#E7E7E7;stroke-width:1.0;"/><path d="M1503.625,267.1725 Q1503.0469,267.4694 1502.4219,267.61 Q1501.8125,267.7663 1501.1406,267.7663 Q1499.1406,267.7663 1497.9688,266.6569 Q1496.7969,265.5319 1496.7969,263.61 Q1496.7969,261.6881 1497.9688,260.5631 Q1499.1406,259.4381 1501.1406,259.4381 Q1501.8125,259.4381 1502.4219,259.5944 Q1503.0469,259.7506 1503.625,260.0475 L1503.625,261.7038 Q1503.0469,261.3131 1502.4844,261.1256 Q1501.9219,260.9381 1501.3125,260.9381 Q1500.2031,260.9381 1499.5625,261.6569 Q1498.9375,262.36 1498.9375,263.61 Q1498.9375,264.8444 1499.5625,265.5631 Q1500.2031,266.2663 1501.3125,266.2663 Q1501.9219,266.2663 1502.4844,266.0944 Q1503.0469,265.9069 1503.625,265.5163 L1503.625,267.1725 Z " fill="#FFFFFF"/><text fill="#AAAAAA" font-family="Verdana" font-size="11" lengthAdjust="spacing" textLength="101" x="1512.5" y="267.4181">download_service</text><line style="stroke:#1B1B1B;stroke-width:0.5;" x1="1490.5" x2="1615.5" y1="276.61" y2="276.61"/><line style="stroke:#1B1B1B;stroke-width:0.5;" x1="1490.5" x2="1615.5" y1="284.61" y2="284.61"/></g><!--class classification_service--><g id="elem_classification_service"><rect fill="#2E2E2E" height="42" id="classification_service" rx="2.5" ry="2.5" style="stroke:#1B1B1B;stroke-width:0.5;" width="147" x="1651.5" y="250.61"/><ellipse cx="1663.5" cy="263.61" fill="#2E5233" rx="8" ry="8" style="stroke:#E7E7E7;stroke-width:1.0;"/><path d="M1665.625,267.1725 Q1665.0469,267.4694 1664.4219,267.61 Q1663.8125,267.7663 1663.1406,267.7663 Q1661.1406,267.7663 1659.9688,266.6569 Q1658.7969,265.5319 1658.7969,263.61 Q1658.7969,261.6881 1659.9688,260.5631 Q1661.1406,259.4381 1663.1406,259.4381 Q1663.8125,259.4381 1664.4219,259.5944 Q1665.0469,259.7506 1665.625,260.0475 L1665.625,261.7038 Q1665.0469,261.3131 1664.4844,261.1256 Q1663.9219,260.9381 1663.3125,260.9381 Q1662.2031,260.9381 1661.5625,261.6569 Q1660.9375,262.36 1660.9375,263.61 Q1660.9375,264.8444 1661.5625,265.5631 Q1662.2031,266.2663 1663.3125,266.2663 Q1663.9219,266.2663 1664.4844,266.0944 Q1665.0469,265.9069 1665.625,265.5163 L1665.625,267.1725 Z " fill="#FFFFFF"/><text fill="#AAAAAA" font-family="Verdana" font-size="11" lengthAdjust="spacing" textLength="121" x="1674.5" y="267.4181">classification_service</text><line style="stroke:#1B1B1B;stroke-width:0.5;" x1="1652.5" x2="1797.5" y1="276.61" y2="276.61"/><line style="stroke:#1B1B1B;stroke-width:0.5;" x1="1652.5" x2="1797.5" y1="284.61" y2="284.61"/></g><!--class image_processor--><g id="elem_image_processor"><rect fill="#2E2E2E" height="42" id="image_processor" rx="2.5" ry="2.5" style="stroke:#1B1B1B;stroke-width:0.5;" width="125" x="1854.5" y="250.61"/><ellipse cx="1866.5" cy="263.61" fill="#2E5233" rx="8" ry="8" style="stroke:#E7E7E7;stroke-width:1.0;"/><path d="M1868.625,267.1725 Q1868.0469,267.4694 1867.4219,267.61 Q1866.8125,267.7663 1866.1406,267.7663 Q1864.1406,267.7663 1862.9688,266.6569 Q1861.7969,265.5319 1861.7969,263.61 Q1861.7969,261.6881 1862.9688,260.5631 Q1864.1406,259.4381 1866.1406,259.4381 Q1866.8125,259.4381 1867.4219,259.5944 Q1868.0469,259.7506 1868.625,260.0475 L1868.625,261.7038 Q1868.0469,261.3131 1867.4844,261.1256 Q1866.9219,260.9381 1866.3125,260.9381 Q1865.2031,260.9381 1864.5625,261.6569 Q1863.9375,262.36 1863.9375,263.61 Q1863.9375,264.8444 1864.5625,265.5631 Q1865.2031,266.2663 1866.3125,266.2663 Q1866.9219,266.2663 1867.4844,266.0944 Q1868.0469,265.9069 1868.625,265.5163 L1868.625,267.1725 Z " fill="#FFFFFF"/><text fill="#AAAAAA" font-family="Verdana" font-size="11" lengthAdjust="spacing" textLength="99" x="1877.5" y="267.4181">image_processor</text><line style="stroke:#1B1B1B;stroke-width:0.5;" x1="1855.5" x2="1978.5" y1="276.61" y2="276.61"/><line style="stroke:#1B1B1B;stroke-width:0.5;" x1="1855.5" x2="1978.5" y1="284.61" y2="284.61"/></g><!--link main to download_service--><g id="link_main_download_service"><path codeLine="32" d="M1715.9,145.49 C1708.33,163.59 1695.73,186.54 1677,199.61 C1661.06,210.74 1651.73,199.64 1634,207.61 C1611.09,217.91 1593.2529,231.9147 1577.8929,246.0647 " fill="none" id="main-to-download_service" style="stroke:#FFFFFF;stroke-width:1.0;"/><polygon fill="#FFFFFF" points="1573.48,250.13,1582.8095,246.974,1577.1574,246.7423,1577.3892,241.0902,1573.48,250.13" style="stroke:#FFFFFF;stroke-width:1.0;"/></g><!--link main to image_processor--><g id="link_main_image_processor"><path codeLine="33" d="M1754.58,142.19 C1791.92,171.72 1850.8531,218.319 1886.3731,246.399 " fill="none" id="main-to-image_processor" style="stroke:#FFFFFF;stroke-width:1.0;"/><polygon fill="#FFFFFF" points="1891.08,250.12,1886.5004,241.4007,1887.1576,247.0192,1881.5391,247.6765,1891.08,250.12" style="stroke:#FFFFFF;stroke-width:1.0;"/></g><!--link main to classification_service--><g id="link_main_classification_service"><path codeLine="34" d="M1725,145.6 C1725,175.56 1725,217.41 1725,244.39 " fill="none" id="main-to-classification_service" style="stroke:#FFFFFF;stroke-width:1.0;"/><polygon fill="#FFFFFF" points="1725,250.39,1729,241.39,1725,245.39,1721,241.39,1725,250.39" style="stroke:#FFFFFF;stroke-width:1.0;"/></g><!--link image_processor to download_service--><g id="link_image_processor_download_service"><path codeLine="36" d="M1893.04,250.15 C1870.32,231.81 1834.27,207.76 1797.5,203.61 C1765.26,199.97 1683.74,199.97 1651.5,203.61 C1643.57,204.5 1641.2,204.16 1634,207.61 C1611.69,218.29 1594.3187,232.0011 1578.9687,246.1011 " fill="none" id="image_processor-to-download_service" style="stroke:#FFFFFF;stroke-width:1.0;"/><polygon fill="#FFFFFF" points="1574.55,250.16,1583.884,247.0175,1578.2323,246.7776,1578.4722,241.1258,1574.55,250.16" style="stroke:#FFFFFF;stroke-width:1.0;"/></g><!--link classification_service to image_processor--><g id="link_classification_service_image_processor"><path codeLine="37" d="M1798.88,271.61 C1817.33,271.61 1829.79,271.61 1848.25,271.61 " fill="none" id="classification_service-to-image_processor" style="stroke:#FFFFFF;stroke-width:1.0;"/><polygon fill="#FFFFFF" points="1854.25,271.61,1845.25,267.61,1849.25,271.61,1845.25,275.61,1854.25,271.61" style="stroke:#FFFFFF;stroke-width:1.0;"/></g><!--SRC=[XPBHJiCW58RlUGhSLHVNFi0kJ8n6NM9q5xjR5aA0ThWM232DCNjtARIrfQtZ0d8uFuUFdtDZZwnYK3DADJCcfLYV2isO041XSi85WmkZoGB-0EW6AR4niC9SD1lrkAtZPEdZ2_1BUvR8Iad1X3KzVIZ2AoT0IalYxfMwb_SrcmJoCfE4PGrVkR7xJHqSbh09jq7AQDZlwbocY0pJdzp9HpnKVebIOeeQHGpKvGCAohMiq8UHeapyZ1IsnpKqLjTWkxCgsRv7kmgiZvpOGnynel0pppd1bainnzAelbjtLEi06lWK6TCP5k0SwGhwANVl6b9D67Usl1oxHgJ8UH7pFRo_FMsUqVP-z-8T6MQzY-5WKZFLdepkThUxlijygwNfNVTlMVnFGzbVmsLHWysKcpOSWFb2rt3-hto5yXS0]--></g></svg>